<svg xmlns="http://www.w3.org/2000/svg" viewBox="0 0 164.95 164.95"><defs><style>.cls-1{fill:#fff;}</style></defs><title>Inst</title><g id="Слой_2" data-name="Слой 2"><g id="Слой_1-2" data-name="Слой 1"><path class="cls-1" d="M88,124.6A42.49,42.49,0,1,0,40.34,76.94,42.6,42.6,0,0,0,88,124.6ZM86.66,58.3A24.54,24.54,0,1,1,58.29,86.66,24.54,24.54,0,0,1,86.66,58.3Z"/><path class="cls-1" d="M41.61,0A41.61,41.61,0,0,0,0,41.61v81.73A41.61,41.61,0,0,0,41.61,165h81.73A41.61,41.61,0,0,0,165,123.34V41.61A41.61,41.61,0,0,0,123.34,0ZM147,41.61v81.73A23.66,23.66,0,0,1,123.34,147H41.61A23.66,23.66,0,0,1,18,123.34V41.61A23.66,23.66,0,0,1,41.61,18h81.73A23.66,23.66,0,0,1,147,41.61Z"/><path class="cls-1" d="M129,48.42a9.91,9.91,0,0,0,7-7A10.08,10.08,0,0,0,123.58,29a9.9,9.9,0,0,0-7,7A10.09,10.09,0,0,0,129,48.42Z"/></g></g></svg>