<svg xmlns="http://www.w3.org/2000/svg" viewBox="0 0 238.29 238.29"><defs><style>.cls-1{fill:#fff;}</style></defs><title>Inst activ</title><g id="Слой_2" data-name="Слой 2"><g id="Слой_1-2" data-name="Слой 1"><path class="cls-1" d="M160,54.62H78.28A23.66,23.66,0,0,0,54.62,78.28V160a23.66,23.66,0,0,0,23.66,23.66H160A23.66,23.66,0,0,0,183.67,160V78.28A23.66,23.66,0,0,0,160,54.62ZM124.68,161.27a42.49,42.49,0,1,1,36.59-36.59A42.54,42.54,0,0,1,124.68,161.27Zm41-76.18A10.09,10.09,0,0,1,153.3,72.67a9.9,9.9,0,0,1,6.95-7,10.08,10.08,0,0,1,12.43,12.42A9.91,9.91,0,0,1,165.71,85.09Z"/><path class="cls-1" d="M123.34,95a24.54,24.54,0,1,0,20,20A24.57,24.57,0,0,0,123.34,95Z"/><path class="cls-1" d="M0,12.51V225.78a12.51,12.51,0,0,0,12.51,12.51H225.78a12.51,12.51,0,0,0,12.51-12.51V12.51A12.51,12.51,0,0,0,225.78,0H12.51A12.51,12.51,0,0,0,0,12.51ZM201.62,160A41.61,41.61,0,0,1,160,201.62H78.28A41.61,41.61,0,0,1,36.67,160V78.28A41.61,41.61,0,0,1,78.28,36.67H160a41.61,41.61,0,0,1,41.61,41.61Z"/></g></g></svg>