<svg xmlns="http://www.w3.org/2000/svg" viewBox="0 0 238.28 238.28"><defs><style>.cls-1{fill:#fff;}</style></defs><title>Telegram Activ</title><g id="Слой_2" data-name="Слой 2"><g id="Слой_1-2" data-name="Слой 1"><path class="cls-1" d="M238.28,13.31c0-.11,0-.22,0-.33V225.3c0-.11,0-.21,0-.32Z"/><path class="cls-1" d="M165.32,78.38l-87.4,54.21a4,4,0,0,0-1.71,4.55l11.73,37.78a.76.76,0,0,0,1.49-.14l2.85-25.33a4,4,0,0,1,1.32-2.53l74-65.45A1.93,1.93,0,0,0,165.32,78.38Z"/><path class="cls-1" d="M225,0H13.31A13.31,13.31,0,0,0,0,13.31V225a13.3,13.3,0,0,0,13.31,13.3H225a13.29,13.29,0,0,0,13.27-13V13A13.29,13.29,0,0,0,225,0ZM198.59,61.92,171.39,192a8.57,8.57,0,0,1-13.46,5.16L116.85,167,95.92,188.36a7,7,0,0,1-11.6-2.77l-15.12-48-40.49-12a5.81,5.81,0,0,1-.46-11L187.59,52.6A8.2,8.2,0,0,1,198.59,61.92Z"/></g></g></svg>