<svg xmlns="http://www.w3.org/2000/svg" viewBox="0 0 174.23 146.78"><defs><style>.cls-1{fill:#fff;}</style></defs><title>Telegram</title><g id="Слой_2" data-name="Слой 2"><g id="Слой_1-2" data-name="Слой 1"><path class="cls-1" d="M163,.57,3.7,62.67a5.8,5.8,0,0,0,.47,11l40.49,12,15.11,48a7,7,0,0,0,11.6,2.78L92.3,115l41.08,30.15A8.57,8.57,0,0,0,146.84,140L174,9.89A8.2,8.2,0,0,0,163,.57ZM135.43,37.28l-67.84,60a3.64,3.64,0,0,0-1.21,2.32l-2.61,23.22a.7.7,0,0,1-1.37.13L51.65,88.32a3.65,3.65,0,0,1,1.56-4.18l80.11-49.69A1.77,1.77,0,0,1,135.43,37.28Z"/></g></g></svg>