<svg xmlns="http://www.w3.org/2000/svg" viewBox="0 0 238.28 238.28"><defs><style>.cls-1{fill:#fff;}</style></defs><title>Ресурс 4</title><g id="Слой_2" data-name="Слой 2"><g id="Слой_1-2" data-name="Слой 1"><path class="cls-1" d="M225.61,0H12.67A12.67,12.67,0,0,0,0,12.67V225.61a12.67,12.67,0,0,0,12.67,12.67H225.61a12.67,12.67,0,0,0,12.67-12.67V12.67A12.67,12.67,0,0,0,225.61,0ZM189.79,134.21c6.49,6.33,13.36,12.3,19.19,19.31a54.37,54.37,0,0,1,6.87,9.88c2.64,5.13.26,10.77-4.34,11.07H183c-7.36.61-13.23-2.36-18.18-7.4-3.94-4-7.6-8.3-11.4-12.45a26.68,26.68,0,0,0-5.14-4.58c-3.88-2.53-7.26-1.76-9.5,2.3s-2.79,8.72-3,13.32c-.32,6.73-2.35,8.49-9.1,8.8-14.42.68-28.11-1.51-40.83-8.78C74.59,159.26,65.91,150.2,58.35,140,43.6,120,32.31,98,22.17,75.47c-2.28-5.08-.61-7.8,5-7.9,9.32-.19,18.63-.16,27.94,0,3.79,0,6.3,2.22,7.75,5.8a173.51,173.51,0,0,0,18.94,35.09c2.06,2.91,4.16,5.81,7.16,7.87,3.3,2.27,5.82,1.52,7.38-2.17A23.67,23.67,0,0,0,98,106.78,110.17,110.17,0,0,0,97.52,81c-.8-5.36-3.82-8.83-9.17-9.84-2.72-.52-2.32-1.53-1-3.08,2.3-2.69,4.46-4.36,8.76-4.36h32.25c5.08,1,6.22,3.27,6.91,8.39l0,35.83c-.06,2,1,7.85,4.55,9.15,2.84.94,4.73-1.34,6.44-3.15C154,105.72,159.52,96,164.45,86c2.18-4.42,4.06-9,5.89-13.58,1.35-3.39,3.46-5.06,7.28-5l31,0a16.92,16.92,0,0,1,2.75.16c5.23.9,6.66,3.15,5,8.25-2.54,8-7.5,14.7-12.34,21.4-5.18,7.16-10.71,14.09-15.85,21.28C183.56,125.18,183.94,128.49,189.79,134.21Z"/></g></g></svg>