<svg xmlns="http://www.w3.org/2000/svg" viewBox="0 0 195.91 110.86"><defs><style>.cls-1{fill:#fff;}</style></defs><title>VK</title><g id="Слой_2" data-name="Слой 2"><g id="Слой_1-2" data-name="Слой 1"><path class="cls-1" d="M182.93,33.58c4.85-6.69,9.81-13.38,12.35-21.39,1.62-5.11.18-7.36-5-8.26a17,17,0,0,0-2.76-.16l-31,0c-3.82-.06-5.94,1.6-7.29,5-1.82,4.58-3.71,9.16-5.88,13.58-4.93,10-10.44,19.71-18.17,27.91-1.7,1.81-3.59,4.09-6.44,3.15-3.55-1.3-4.6-7.17-4.55-9.15l0-35.83c-.69-5.11-1.82-7.4-6.9-8.39H74.93c-4.3,0-6.46,1.67-8.76,4.36-1.32,1.55-1.72,2.56,1,3.08,5.35,1,8.37,4.48,9.17,9.84a110.24,110.24,0,0,1,.45,25.8,24.25,24.25,0,0,1-1.64,7.36c-1.56,3.69-4.08,4.44-7.39,2.17-3-2.06-5.09-5-7.15-7.87A173.25,173.25,0,0,1,41.67,9.65c-1.45-3.57-4-5.74-7.75-5.8C24.61,3.7,15.29,3.67,6,3.86c-5.6.1-7.27,2.82-5,7.9,10.14,22.57,21.43,44.5,36.17,64.49C44.73,86.49,53.41,95.55,64.64,102c12.72,7.26,26.41,9.45,40.83,8.77,6.75-.31,8.78-2.06,9.1-8.79.2-4.61.73-9.19,3-13.33s5.61-4.82,9.5-2.3a26.92,26.92,0,0,1,5.13,4.58c3.8,4.15,7.47,8.44,11.41,12.45,4.95,5,10.82,8,18.18,7.4h28.53c4.6-.3,7-5.94,4.35-11.07a54.88,54.88,0,0,0-6.87-9.88c-5.83-7-12.7-13-19.19-19.31-5.86-5.72-6.24-9-1.53-15.63C172.23,47.67,177.75,40.74,182.93,33.58Z"/></g></g></svg>